<svg preserveAspectRatio="none" width="100%" height="100%" overflow="visible" style="display: block;" viewBox="0 0 17 17" fill="none" xmlns="http://www.w3.org/2000/svg">
<g id="Icon" clip-path="url(#clip0_110_88)">
<path id="Vector" d="M7.03871 10.9792C6.97547 10.734 6.8477 10.5103 6.66869 10.3313C6.48968 10.1523 6.26597 10.0245 6.02083 9.96129L1.67521 8.84071C1.60107 8.81966 1.53581 8.77501 1.48935 8.71352C1.44289 8.65204 1.41775 8.57707 1.41775 8.5C1.41775 8.42293 1.44289 8.34796 1.48935 8.28648C1.53581 8.22499 1.60107 8.18034 1.67521 8.15929L6.02083 7.038C6.26588 6.97482 6.48953 6.84716 6.66853 6.66828C6.84754 6.4894 6.97536 6.26584 7.03871 6.02083L8.15929 1.67521C8.18012 1.60078 8.22473 1.5352 8.28631 1.48849C8.34789 1.44178 8.42306 1.41649 8.50035 1.41649C8.57765 1.41649 8.65282 1.44178 8.7144 1.48849C8.77598 1.5352 8.82059 1.60078 8.84142 1.67521L9.96129 6.02083C10.0245 6.26597 10.1523 6.48968 10.3313 6.66869C10.5103 6.8477 10.734 6.97547 10.9792 7.03871L15.3248 8.15858C15.3995 8.1792 15.4654 8.22376 15.5124 8.28543C15.5594 8.3471 15.5848 8.42248 15.5848 8.5C15.5848 8.57752 15.5594 8.6529 15.5124 8.71457C15.4654 8.77624 15.3995 8.8208 15.3248 8.84142L10.9792 9.96129C10.734 10.0245 10.5103 10.1523 10.3313 10.3313C10.1523 10.5103 10.0245 10.734 9.96129 10.9792L8.84071 15.3248C8.81988 15.3992 8.77527 15.4648 8.71369 15.5115C8.65211 15.5582 8.57694 15.5835 8.49965 15.5835C8.42235 15.5835 8.34718 15.5582 8.2856 15.5115C8.22402 15.4648 8.17941 15.3992 8.15858 15.3248L7.03871 10.9792Z" stroke="var(--stroke-0, #6B7280)" stroke-width="1.275" stroke-linecap="round" stroke-linejoin="round"/>
<path id="Vector_2" d="M14.1667 2.125V4.95833" stroke="var(--stroke-0, #6B7280)" stroke-width="1.275" stroke-linecap="round" stroke-linejoin="round"/>
<path id="Vector_3" d="M15.5833 3.54167H12.75" stroke="var(--stroke-0, #6B7280)" stroke-width="1.275" stroke-linecap="round" stroke-linejoin="round"/>
<path id="Vector_4" d="M2.83333 12.0417V13.4583" stroke="var(--stroke-0, #6B7280)" stroke-width="1.275" stroke-linecap="round" stroke-linejoin="round"/>
<path id="Vector_5" d="M3.54167 12.75H2.125" stroke="var(--stroke-0, #6B7280)" stroke-width="1.275" stroke-linecap="round" stroke-linejoin="round"/>
</g>
<defs>
<clipPath id="clip0_110_88">
<rect width="17" height="17" fill="white"/>
</clipPath>
</defs>
</svg>
