<svg preserveAspectRatio="none" width="100%" height="100%" overflow="visible" style="display: block;" viewBox="0 0 13 13" fill="none" xmlns="http://www.w3.org/2000/svg">
<g id="Icon" clip-path="url(#clip0_130_199)">
<path id="Vector" d="M5.38254 8.39583C5.33418 8.20838 5.23647 8.03731 5.09958 7.90042C4.96269 7.76352 4.79162 7.66582 4.60417 7.61746L1.28104 6.76054C1.22435 6.74445 1.17445 6.7103 1.13891 6.66328C1.10338 6.61626 1.08416 6.55894 1.08416 6.5C1.08416 6.44106 1.10338 6.38374 1.13891 6.33672C1.17445 6.2897 1.22435 6.25555 1.28104 6.23946L4.60417 5.382C4.79156 5.33369 4.96258 5.23606 5.09947 5.09927C5.23635 4.96248 5.3341 4.79152 5.38254 4.60417L6.23946 1.28104C6.25539 1.22412 6.2895 1.17398 6.33659 1.13826C6.38368 1.10253 6.44116 1.0832 6.50027 1.0832C6.55938 1.0832 6.61686 1.10253 6.66395 1.13826C6.71104 1.17398 6.74515 1.22412 6.76108 1.28104L7.61746 4.60417C7.66582 4.79162 7.76352 4.96269 7.90042 5.09958C8.03731 5.23648 8.20838 5.33418 8.39583 5.38254L11.719 6.23892C11.7761 6.25468 11.8265 6.28875 11.8624 6.33592C11.8983 6.38308 11.9178 6.44072 11.9178 6.5C11.9178 6.55928 11.8983 6.61692 11.8624 6.66408C11.8265 6.71124 11.7761 6.74532 11.719 6.76108L8.39583 7.61746C8.20838 7.66582 8.03731 7.76352 7.90042 7.90042C7.76352 8.03731 7.66582 8.20838 7.61746 8.39583L6.76054 11.719C6.74461 11.7759 6.7105 11.826 6.66341 11.8617C6.61632 11.8975 6.55884 11.9168 6.49973 11.9168C6.44062 11.9168 6.38314 11.8975 6.33605 11.8617C6.28896 11.826 6.25485 11.7759 6.23892 11.719L5.38254 8.39583Z" stroke="var(--stroke-0, white)" stroke-opacity="0.7" stroke-width="1.08333" stroke-linecap="round" stroke-linejoin="round"/>
<path id="Vector_2" d="M10.8333 1.625V3.79167" stroke="var(--stroke-0, white)" stroke-opacity="0.7" stroke-width="1.08333" stroke-linecap="round" stroke-linejoin="round"/>
<path id="Vector_3" d="M11.9167 2.70833H9.75" stroke="var(--stroke-0, white)" stroke-opacity="0.7" stroke-width="1.08333" stroke-linecap="round" stroke-linejoin="round"/>
<path id="Vector_4" d="M2.16667 9.20833V10.2917" stroke="var(--stroke-0, white)" stroke-opacity="0.7" stroke-width="1.08333" stroke-linecap="round" stroke-linejoin="round"/>
<path id="Vector_5" d="M2.70833 9.75H1.625" stroke="var(--stroke-0, white)" stroke-opacity="0.7" stroke-width="1.08333" stroke-linecap="round" stroke-linejoin="round"/>
</g>
<defs>
<clipPath id="clip0_130_199">
<rect width="13" height="13" fill="white"/>
</clipPath>
</defs>
</svg>
