<svg preserveAspectRatio="none" width="100%" height="100%" overflow="visible" style="display: block;" viewBox="0 0 38 38" fill="none" xmlns="http://www.w3.org/2000/svg">
<g id="LogoMark" clip-path="url(#clip0_52_142)">
<path id="Vector" d="M29.2917 0H8.70833C3.89885 0 0 3.89885 0 8.70833V29.2917C0 34.1011 3.89885 38 8.70833 38H29.2917C34.1011 38 38 34.1011 38 29.2917V8.70833C38 3.89885 34.1011 0 29.2917 0Z" fill="url(#paint0_linear_52_142)"/>
<path id="Vector_2" d="M29.2917 0H8.70833C3.89885 0 0 3.89885 0 8.70833V29.2917C0 34.1011 3.89885 38 8.70833 38H29.2917C34.1011 38 38 34.1011 38 29.2917V8.70833C38 3.89885 34.1011 0 29.2917 0Z" fill="url(#paint1_radial_52_142)"/>
<path id="Vector_3" d="M19 31.2708C24.9025 31.2708 29.6875 26.4859 29.6875 20.5833C29.6875 14.6808 24.9025 9.89583 19 9.89583C13.0975 9.89583 8.3125 14.6808 8.3125 20.5833C8.3125 26.4859 13.0975 31.2708 19 31.2708Z" stroke="var(--stroke-0, #A7C7A3)" stroke-opacity="0.22" stroke-width="0.791667"/>
<g id="Group">
<path id="Vector_4" d="M11.7167 17.1792C12.8535 17.1792 13.775 16.045 13.775 14.6458C13.775 13.2467 12.8535 12.1125 11.7167 12.1125C10.5799 12.1125 9.65833 13.2467 9.65833 14.6458C9.65833 16.045 10.5799 17.1792 11.7167 17.1792Z" fill="var(--fill-0, white)"/>
<path id="Vector_5" d="M16.3083 14.4083C17.4451 14.4083 18.3667 13.2032 18.3667 11.7167C18.3667 10.2301 17.4451 9.025 16.3083 9.025C15.1715 9.025 14.25 10.2301 14.25 11.7167C14.25 13.2032 15.1715 14.4083 16.3083 14.4083Z" fill="var(--fill-0, white)"/>
<path id="Vector_6" d="M21.6917 14.4083C22.8285 14.4083 23.75 13.2032 23.75 11.7167C23.75 10.2301 22.8285 9.025 21.6917 9.025C20.5549 9.025 19.6333 10.2301 19.6333 11.7167C19.6333 13.2032 20.5549 14.4083 21.6917 14.4083Z" fill="var(--fill-0, white)"/>
<path id="Vector_7" d="M26.2833 17.1792C27.4201 17.1792 28.3417 16.045 28.3417 14.6458C28.3417 13.2467 27.4201 12.1125 26.2833 12.1125C25.1465 12.1125 24.225 13.2467 24.225 14.6458C24.225 16.045 25.1465 17.1792 26.2833 17.1792Z" fill="var(--fill-0, white)"/>
<path id="Vector_8" d="M13.0625 19.3958C13.0625 16.5458 15.8333 15.2 19 15.2C22.1667 15.2 24.9375 16.5458 24.9375 19.3958V24.1458C24.9375 27.3125 22.4042 29.1333 19 29.1333C15.5958 29.1333 13.0625 27.3125 13.0625 24.1458V19.3958Z" fill="var(--fill-0, white)"/>
</g>
<path id="Vector_9" d="M19 25.175C17.575 23.9875 15.8333 22.8792 15.8333 21.2958C15.8333 20.2667 16.625 19.5542 17.4958 19.5542C18.1292 19.5542 18.6833 19.8708 19 20.425C19.3167 19.8708 19.8708 19.5542 20.5042 19.5542C21.375 19.5542 22.1667 20.2667 22.1667 21.2958C22.1667 22.8792 20.425 23.9875 19 25.175Z" fill="var(--fill-0, #FFF8F1)"/>
<path id="Vector_10" d="M30.4792 10.45C31.8783 10.45 33.0125 9.31579 33.0125 7.91667C33.0125 6.51754 31.8783 5.38333 30.4792 5.38333C29.08 5.38333 27.9458 6.51754 27.9458 7.91667C27.9458 9.31579 29.08 10.45 30.4792 10.45Z" fill="var(--fill-0, #F97360)"/>
<path id="Vector_11" opacity="0.85" d="M30.4792 8.7875C30.9601 8.7875 31.35 8.39761 31.35 7.91667C31.35 7.43572 30.9601 7.04583 30.4792 7.04583C29.9982 7.04583 29.6083 7.43572 29.6083 7.91667C29.6083 8.39761 29.9982 8.7875 30.4792 8.7875Z" fill="var(--fill-0, white)"/>
</g>
<defs>
<linearGradient id="paint0_linear_52_142" x1="0" y1="0" x2="38" y2="38" gradientUnits="userSpaceOnUse">
<stop stop-color="#0F766E"/>
<stop offset="1" stop-color="#134E4A"/>
</linearGradient>
<radialGradient id="paint1_radial_52_142" cx="0" cy="0" r="1" gradientUnits="userSpaceOnUse" gradientTransform="translate(11.4 9.5) scale(26.6)">
<stop stop-color="white" stop-opacity="0.18"/>
<stop offset="0.6" stop-color="white" stop-opacity="0"/>
</radialGradient>
<clipPath id="clip0_52_142">
<rect width="38" height="38" fill="white"/>
</clipPath>
</defs>
</svg>
