<svg preserveAspectRatio="none" width="100%" height="100%" overflow="visible" style="display: block;" viewBox="0 0 17 17" fill="none" xmlns="http://www.w3.org/2000/svg">
<g id="Icon" clip-path="url(#clip0_110_112)">
<path id="Vector" d="M7.79167 4.25C8.57407 4.25 9.20833 3.61574 9.20833 2.83333C9.20833 2.05093 8.57407 1.41667 7.79167 1.41667C7.00926 1.41667 6.375 2.05093 6.375 2.83333C6.375 3.61574 7.00926 4.25 7.79167 4.25Z" stroke="var(--stroke-0, #6B7280)" stroke-width="1.275" stroke-linecap="round" stroke-linejoin="round"/>
<path id="Vector_2" d="M12.75 7.08333C13.5324 7.08333 14.1667 6.44907 14.1667 5.66667C14.1667 4.88426 13.5324 4.25 12.75 4.25C11.9676 4.25 11.3333 4.88426 11.3333 5.66667C11.3333 6.44907 11.9676 7.08333 12.75 7.08333Z" stroke="var(--stroke-0, #6B7280)" stroke-width="1.275" stroke-linecap="round" stroke-linejoin="round"/>
<path id="Vector_3" d="M14.1667 12.75C14.9491 12.75 15.5833 12.1157 15.5833 11.3333C15.5833 10.5509 14.9491 9.91667 14.1667 9.91667C13.3843 9.91667 12.75 10.5509 12.75 11.3333C12.75 12.1157 13.3843 12.75 14.1667 12.75Z" stroke="var(--stroke-0, #6B7280)" stroke-width="1.275" stroke-linecap="round" stroke-linejoin="round"/>
<path id="Vector_4" d="M6.375 7.08333C6.8401 7.08333 7.30064 7.17494 7.73034 7.35293C8.16003 7.53091 8.55046 7.79179 8.87934 8.12066C9.20821 8.44954 9.46909 8.83997 9.64707 9.26966C9.82506 9.69936 9.91667 10.1599 9.91667 10.625V13.1042C9.91647 13.6967 9.70409 14.2695 9.318 14.7189C8.9319 15.1683 8.39761 15.4646 7.81192 15.5541C7.22622 15.6436 6.62784 15.5203 6.12517 15.2067C5.62249 14.8931 5.24876 14.4098 5.07167 13.8444C4.76944 12.8692 4.13194 12.2306 3.15917 11.9283C2.59405 11.7513 2.11095 11.3779 1.7973 10.8756C1.48364 10.3733 1.36015 9.77529 1.44917 9.18983C1.53819 8.60437 1.83383 8.07011 2.28261 7.68373C2.73138 7.29735 3.30364 7.08437 3.89583 7.08333H6.375Z" stroke="var(--stroke-0, #6B7280)" stroke-width="1.275" stroke-linecap="round" stroke-linejoin="round"/>
</g>
<defs>
<clipPath id="clip0_110_112">
<rect width="17" height="17" fill="white"/>
</clipPath>
</defs>
</svg>
