<svg preserveAspectRatio="none" width="100%" height="100%" overflow="visible" style="display: block;" viewBox="0 0 17 17" fill="none" xmlns="http://www.w3.org/2000/svg">
<g id="Icon">
<path id="Vector" d="M6.375 2.125H2.83333C2.44213 2.125 2.125 2.44213 2.125 2.83333V7.79167C2.125 8.18287 2.44213 8.5 2.83333 8.5H6.375C6.7662 8.5 7.08333 8.18287 7.08333 7.79167V2.83333C7.08333 2.44213 6.7662 2.125 6.375 2.125Z" stroke="var(--stroke-0, #6B7280)" stroke-width="1.275" stroke-linecap="round" stroke-linejoin="round"/>
<path id="Vector_2" d="M14.1667 2.125H10.625C10.2338 2.125 9.91667 2.44213 9.91667 2.83333V4.95833C9.91667 5.34954 10.2338 5.66667 10.625 5.66667H14.1667C14.5579 5.66667 14.875 5.34954 14.875 4.95833V2.83333C14.875 2.44213 14.5579 2.125 14.1667 2.125Z" stroke="var(--stroke-0, #6B7280)" stroke-width="1.275" stroke-linecap="round" stroke-linejoin="round"/>
<path id="Vector_3" d="M14.1667 8.5H10.625C10.2338 8.5 9.91667 8.81713 9.91667 9.20833V14.1667C9.91667 14.5579 10.2338 14.875 10.625 14.875H14.1667C14.5579 14.875 14.875 14.5579 14.875 14.1667V9.20833C14.875 8.81713 14.5579 8.5 14.1667 8.5Z" stroke="var(--stroke-0, #6B7280)" stroke-width="1.275" stroke-linecap="round" stroke-linejoin="round"/>
<path id="Vector_4" d="M6.375 11.3333H2.83333C2.44213 11.3333 2.125 11.6505 2.125 12.0417V14.1667C2.125 14.5579 2.44213 14.875 2.83333 14.875H6.375C6.7662 14.875 7.08333 14.5579 7.08333 14.1667V12.0417C7.08333 11.6505 6.7662 11.3333 6.375 11.3333Z" stroke="var(--stroke-0, #6B7280)" stroke-width="1.275" stroke-linecap="round" stroke-linejoin="round"/>
</g>
</svg>
