<svg preserveAspectRatio="none" width="100%" height="100%" overflow="visible" style="display: block;" viewBox="0 0 13 13" fill="none" xmlns="http://www.w3.org/2000/svg">
<g id="Icon">
<path id="Vector" d="M5.95833 11.7704C6.12302 11.8655 6.30984 11.9156 6.5 11.9156C6.69016 11.9156 6.87698 11.8655 7.04167 11.7704L10.8333 9.60375C10.9979 9.50876 11.1345 9.37218 11.2296 9.2077C11.3247 9.04323 11.3748 8.85664 11.375 8.66667V4.33333C11.3748 4.14336 11.3247 3.95677 11.2296 3.7923C11.1345 3.62782 10.9979 3.49124 10.8333 3.39625L7.04167 1.22958C6.87698 1.1345 6.69016 1.08444 6.5 1.08444C6.30984 1.08444 6.12302 1.1345 5.95833 1.22958L2.16667 3.39625C2.00214 3.49124 1.86549 3.62782 1.77042 3.7923C1.67534 3.95677 1.62519 4.14336 1.625 4.33333V8.66667C1.62519 8.85664 1.67534 9.04323 1.77042 9.2077C1.86549 9.37218 2.00214 9.50876 2.16667 9.60375L5.95833 11.7704Z" stroke="var(--stroke-0, white)" stroke-width="1.08333" stroke-linecap="round" stroke-linejoin="round"/>
<path id="Vector_2" d="M6.5 11.9167V6.5" stroke="var(--stroke-0, white)" stroke-width="1.08333" stroke-linecap="round" stroke-linejoin="round"/>
<path id="Vector_3" d="M1.78208 3.79167L6.5 6.5L11.2179 3.79167" stroke="var(--stroke-0, white)" stroke-width="1.08333" stroke-linecap="round" stroke-linejoin="round"/>
<path id="Vector_4" d="M4.0625 2.31292L8.9375 5.1025" stroke="var(--stroke-0, white)" stroke-width="1.08333" stroke-linecap="round" stroke-linejoin="round"/>
</g>
</svg>
