<svg preserveAspectRatio="none" width="100%" height="100%" overflow="visible" style="display: block;" viewBox="0 0 20 20" fill="none" xmlns="http://www.w3.org/2000/svg">
<g id="Icon" clip-path="url(#clip0_45_43)">
<path id="Vector" d="M9.16667 5C10.0871 5 10.8333 4.25381 10.8333 3.33333C10.8333 2.41286 10.0871 1.66667 9.16667 1.66667C8.24619 1.66667 7.5 2.41286 7.5 3.33333C7.5 4.25381 8.24619 5 9.16667 5Z" stroke="var(--stroke-0, #0F766E)" stroke-width="1.66667" stroke-linecap="round" stroke-linejoin="round"/>
<path id="Vector_2" d="M15 8.33333C15.9205 8.33333 16.6667 7.58714 16.6667 6.66667C16.6667 5.74619 15.9205 5 15 5C14.0795 5 13.3333 5.74619 13.3333 6.66667C13.3333 7.58714 14.0795 8.33333 15 8.33333Z" stroke="var(--stroke-0, #0F766E)" stroke-width="1.66667" stroke-linecap="round" stroke-linejoin="round"/>
<path id="Vector_3" d="M16.6667 15C17.5871 15 18.3333 14.2538 18.3333 13.3333C18.3333 12.4129 17.5871 11.6667 16.6667 11.6667C15.7462 11.6667 15 12.4129 15 13.3333C15 14.2538 15.7462 15 16.6667 15Z" stroke="var(--stroke-0, #0F766E)" stroke-width="1.66667" stroke-linecap="round" stroke-linejoin="round"/>
<path id="Vector_4" d="M7.5 8.33333C8.04717 8.33333 8.58899 8.44111 9.09451 8.6505C9.60004 8.8599 10.0594 9.16681 10.4463 9.55372C10.8332 9.94063 11.1401 10.4 11.3495 10.9055C11.5589 11.411 11.6667 11.9528 11.6667 12.5V15.4167C11.6664 16.1137 11.4166 16.7876 10.9624 17.3164C10.5081 17.8451 9.87955 18.1937 9.19049 18.2989C8.50144 18.4042 7.79746 18.2592 7.20608 17.8902C6.6147 17.5213 6.17501 16.9527 5.96667 16.2875C5.61111 15.1403 4.86111 14.3889 3.71667 14.0333C3.05182 13.8251 2.48347 13.3858 2.11447 12.7948C1.74546 12.2039 1.60018 11.5003 1.70491 10.8116C1.80963 10.1228 2.15745 9.49425 2.68542 9.03968C3.21339 8.58511 3.88664 8.33455 4.58333 8.33333H7.5Z" stroke="var(--stroke-0, #0F766E)" stroke-width="1.66667" stroke-linecap="round" stroke-linejoin="round"/>
</g>
<defs>
<clipPath id="clip0_45_43">
<rect width="20" height="20" fill="white"/>
</clipPath>
</defs>
</svg>
