<svg preserveAspectRatio="none" width="100%" height="100%" overflow="visible" style="display: block;" viewBox="0 0 17 17" fill="none" xmlns="http://www.w3.org/2000/svg">
<g id="Icon">
<path id="Vector" d="M4.25 1.41667L2.125 4.25V14.1667C2.125 14.5424 2.27426 14.9027 2.53993 15.1684C2.80561 15.4341 3.16594 15.5833 3.54167 15.5833H13.4583C13.8341 15.5833 14.1944 15.4341 14.4601 15.1684C14.7257 14.9027 14.875 14.5424 14.875 14.1667V4.25L12.75 1.41667H4.25Z" stroke="var(--stroke-0, #6B7280)" stroke-width="1.275" stroke-linecap="round" stroke-linejoin="round"/>
<path id="Vector_2" d="M2.125 4.25H14.875" stroke="var(--stroke-0, #6B7280)" stroke-width="1.275" stroke-linecap="round" stroke-linejoin="round"/>
<path id="Vector_3" d="M11.3333 7.08333C11.3333 7.83478 11.0348 8.55545 10.5035 9.0868C9.97212 9.61816 9.25145 9.91667 8.5 9.91667C7.74855 9.91667 7.02788 9.61816 6.49653 9.0868C5.96518 8.55545 5.66667 7.83478 5.66667 7.08333" stroke="var(--stroke-0, #6B7280)" stroke-width="1.275" stroke-linecap="round" stroke-linejoin="round"/>
</g>
</svg>
