<svg preserveAspectRatio="none" width="100%" height="100%" overflow="visible" style="display: block;" viewBox="0 0 18 18" fill="none" xmlns="http://www.w3.org/2000/svg">
<g id="Icon" clip-path="url(#clip0_70_228)">
<path id="Vector" d="M8.25 4.5C9.07843 4.5 9.75 3.82843 9.75 3C9.75 2.17157 9.07843 1.5 8.25 1.5C7.42157 1.5 6.75 2.17157 6.75 3C6.75 3.82843 7.42157 4.5 8.25 4.5Z" stroke="var(--stroke-0, white)" stroke-width="1.5" stroke-linecap="round" stroke-linejoin="round"/>
<path id="Vector_2" d="M13.5 7.5C14.3284 7.5 15 6.82843 15 6C15 5.17157 14.3284 4.5 13.5 4.5C12.6716 4.5 12 5.17157 12 6C12 6.82843 12.6716 7.5 13.5 7.5Z" stroke="var(--stroke-0, white)" stroke-width="1.5" stroke-linecap="round" stroke-linejoin="round"/>
<path id="Vector_3" d="M15 13.5C15.8284 13.5 16.5 12.8284 16.5 12C16.5 11.1716 15.8284 10.5 15 10.5C14.1716 10.5 13.5 11.1716 13.5 12C13.5 12.8284 14.1716 13.5 15 13.5Z" stroke="var(--stroke-0, white)" stroke-width="1.5" stroke-linecap="round" stroke-linejoin="round"/>
<path id="Vector_4" d="M6.75 7.5C7.24246 7.5 7.73009 7.597 8.18506 7.78545C8.64003 7.97391 9.05343 8.25013 9.40165 8.59835C9.74987 8.94657 10.0261 9.35997 10.2145 9.81494C10.403 10.2699 10.5 10.7575 10.5 11.25V13.875C10.4998 14.5023 10.2749 15.1089 9.86611 15.5847C9.4573 16.0606 8.89159 16.3743 8.27144 16.469C7.65129 16.5638 7.01772 16.4333 6.48547 16.1012C5.95323 15.7691 5.55751 15.2574 5.37 14.6588C5.05 13.6263 4.375 12.95 3.345 12.63C2.74664 12.4426 2.23512 12.0472 1.90302 11.5153C1.57092 10.9835 1.44016 10.3503 1.53442 9.73041C1.62867 9.11051 1.94171 8.54482 2.41688 8.13571C2.89205 7.7266 3.49798 7.5011 4.125 7.5H6.75Z" stroke="var(--stroke-0, white)" stroke-width="1.5" stroke-linecap="round" stroke-linejoin="round"/>
</g>
<defs>
<clipPath id="clip0_70_228">
<rect width="18" height="18" fill="white"/>
</clipPath>
</defs>
</svg>
