<svg preserveAspectRatio="none" width="100%" height="100%" overflow="visible" style="display: block;" viewBox="0 0 14 14" fill="none" xmlns="http://www.w3.org/2000/svg">
<g id="Icon" clip-path="url(#clip0_45_49)">
<path id="Vector" d="M6.41667 3.5C7.061 3.5 7.58333 2.97767 7.58333 2.33333C7.58333 1.689 7.061 1.16667 6.41667 1.16667C5.77233 1.16667 5.25 1.689 5.25 2.33333C5.25 2.97767 5.77233 3.5 6.41667 3.5Z" stroke="var(--stroke-0, #0F766E)" stroke-width="1.16667" stroke-linecap="round" stroke-linejoin="round"/>
<path id="Vector_2" d="M10.5 5.83333C11.1443 5.83333 11.6667 5.311 11.6667 4.66667C11.6667 4.02233 11.1443 3.5 10.5 3.5C9.85567 3.5 9.33333 4.02233 9.33333 4.66667C9.33333 5.311 9.85567 5.83333 10.5 5.83333Z" stroke="var(--stroke-0, #0F766E)" stroke-width="1.16667" stroke-linecap="round" stroke-linejoin="round"/>
<path id="Vector_3" d="M11.6667 10.5C12.311 10.5 12.8333 9.97767 12.8333 9.33333C12.8333 8.689 12.311 8.16667 11.6667 8.16667C11.0223 8.16667 10.5 8.689 10.5 9.33333C10.5 9.97767 11.0223 10.5 11.6667 10.5Z" stroke="var(--stroke-0, #0F766E)" stroke-width="1.16667" stroke-linecap="round" stroke-linejoin="round"/>
<path id="Vector_4" d="M5.25 5.83333C5.63302 5.83333 6.01229 5.90878 6.36616 6.05535C6.72003 6.20193 7.04156 6.41677 7.31239 6.68761C7.58323 6.95844 7.79807 7.27997 7.94465 7.63384C8.09123 7.98771 8.16667 8.36698 8.16667 8.75V10.7917C8.16651 11.2796 7.99161 11.7513 7.67364 12.1215C7.35568 12.4916 6.91568 12.7356 6.43334 12.8093C5.951 12.8829 5.45822 12.7815 5.04425 12.5232C4.63029 12.2649 4.32251 11.8669 4.17667 11.4013C3.92778 10.5982 3.40278 10.0722 2.60167 9.82333C2.13627 9.67757 1.73843 9.37003 1.48013 8.95636C1.22182 8.5427 1.12013 8.05024 1.19343 7.5681C1.26674 7.08595 1.51022 6.64597 1.8798 6.32778C2.24938 6.00958 2.72065 5.83419 3.20833 5.83333H5.25Z" stroke="var(--stroke-0, #0F766E)" stroke-width="1.16667" stroke-linecap="round" stroke-linejoin="round"/>
</g>
<defs>
<clipPath id="clip0_45_49">
<rect width="14" height="14" fill="white"/>
</clipPath>
</defs>
</svg>
