<svg preserveAspectRatio="none" width="100%" height="100%" overflow="visible" style="display: block;" viewBox="0 0 15 15" fill="none" xmlns="http://www.w3.org/2000/svg">
<g id="Icon" clip-path="url(#clip0_110_44)">
<path id="Vector" d="M6.21063 9.6875C6.15483 9.47121 6.04209 9.27381 5.88414 9.11586C5.72619 8.95791 5.52879 8.84517 5.3125 8.78937L1.47813 7.80062C1.41271 7.78206 1.35513 7.74266 1.31413 7.6884C1.27313 7.63415 1.25095 7.568 1.25095 7.5C1.25095 7.432 1.27313 7.36585 1.31413 7.3116C1.35513 7.25734 1.41271 7.21794 1.47813 7.19937L5.3125 6.21C5.52872 6.15425 5.72606 6.04161 5.884 5.88377C6.04195 5.72594 6.15473 5.52868 6.21063 5.3125L7.19937 1.47812C7.21775 1.41245 7.25711 1.35459 7.31145 1.31337C7.36579 1.27215 7.43211 1.24984 7.50031 1.24984C7.56851 1.24984 7.63484 1.27215 7.68917 1.31337C7.74351 1.35459 7.78287 1.41245 7.80125 1.47812L8.78937 5.3125C8.84517 5.52879 8.95791 5.72619 9.11586 5.88414C9.27381 6.04209 9.47121 6.15483 9.6875 6.21063L13.5219 7.19875C13.5878 7.21694 13.646 7.25626 13.6874 7.31067C13.7288 7.36509 13.7513 7.4316 13.7513 7.5C13.7513 7.5684 13.7288 7.63491 13.6874 7.68933C13.646 7.74374 13.5878 7.78306 13.5219 7.80125L9.6875 8.78937C9.47121 8.84517 9.27381 8.95791 9.11586 9.11586C8.95791 9.27381 8.84517 9.47121 8.78937 9.6875L7.80062 13.5219C7.78224 13.5876 7.74289 13.6454 7.68855 13.6866C7.63421 13.7278 7.56789 13.7502 7.49969 13.7502C7.43149 13.7502 7.36516 13.7278 7.31083 13.6866C7.25649 13.6454 7.21713 13.5876 7.19875 13.5219L6.21063 9.6875Z" stroke="var(--stroke-0, white)" stroke-width="1.25" stroke-linecap="round" stroke-linejoin="round"/>
<path id="Vector_2" d="M12.5 1.875V4.375" stroke="var(--stroke-0, white)" stroke-width="1.25" stroke-linecap="round" stroke-linejoin="round"/>
<path id="Vector_3" d="M13.75 3.125H11.25" stroke="var(--stroke-0, white)" stroke-width="1.25" stroke-linecap="round" stroke-linejoin="round"/>
<path id="Vector_4" d="M2.5 10.625V11.875" stroke="var(--stroke-0, white)" stroke-width="1.25" stroke-linecap="round" stroke-linejoin="round"/>
<path id="Vector_5" d="M3.125 11.25H1.875" stroke="var(--stroke-0, white)" stroke-width="1.25" stroke-linecap="round" stroke-linejoin="round"/>
</g>
<defs>
<clipPath id="clip0_110_44">
<rect width="15" height="15" fill="white"/>
</clipPath>
</defs>
</svg>
