<svg preserveAspectRatio="none" width="100%" height="100%" overflow="visible" style="display: block;" viewBox="0 0 13 13" fill="none" xmlns="http://www.w3.org/2000/svg">
<g id="Icon">
<path id="Vector" d="M6.24271 1.24312C6.26645 1.19517 6.30312 1.1548 6.34858 1.12657C6.39404 1.09835 6.44649 1.08339 6.5 1.08339C6.55351 1.08339 6.60596 1.09835 6.65142 1.12657C6.69688 1.1548 6.73355 1.19517 6.75729 1.24312L8.00854 3.77758C8.09097 3.9444 8.21265 4.08872 8.36313 4.19816C8.51361 4.3076 8.6884 4.37889 8.8725 4.40592L11.6708 4.81542C11.7238 4.8231 11.7736 4.84546 11.8146 4.87998C11.8555 4.9145 11.886 4.9598 11.9026 5.01075C11.9192 5.06169 11.9211 5.11626 11.9083 5.16828C11.8955 5.22029 11.8684 5.26768 11.83 5.30508L9.80633 7.27567C9.67288 7.40572 9.57302 7.56626 9.51537 7.74347C9.45772 7.92067 9.44399 8.10923 9.47538 8.29292L9.95313 11.0771C9.96248 11.1301 9.95676 11.1846 9.9366 11.2345C9.91645 11.2844 9.88267 11.3277 9.83913 11.3593C9.79559 11.3909 9.74403 11.4097 9.69034 11.4134C9.63666 11.4171 9.583 11.4057 9.5355 11.3804L7.03408 10.0653C6.86926 9.97871 6.68589 9.93349 6.49973 9.93349C6.31357 9.93349 6.13019 9.97871 5.96537 10.0653L3.4645 11.3804C3.41701 11.4056 3.36342 11.4169 3.30983 11.4131C3.25623 11.4092 3.20478 11.3905 3.16133 11.3589C3.11787 11.3273 3.08416 11.2841 3.06402 11.2343C3.04388 11.1845 3.03813 11.13 3.04742 11.0771L3.52462 8.29346C3.55615 8.10969 3.54249 7.92101 3.48483 7.74369C3.42717 7.56638 3.32725 7.40575 3.19367 7.27567L1.17 5.30562C1.13132 5.26827 1.10391 5.2208 1.0909 5.16862C1.07788 5.11645 1.07978 5.06167 1.09638 5.01052C1.11297 4.95937 1.1436 4.91391 1.18477 4.87932C1.22595 4.84473 1.27601 4.8224 1.32925 4.81487L4.12696 4.40592C4.31126 4.3791 4.48629 4.30791 4.63698 4.19845C4.78767 4.089 4.90951 3.94456 4.992 3.77758L6.24271 1.24312Z" fill="var(--fill-0, #F59E0B)" stroke="var(--stroke-0, #F59E0B)" stroke-width="1.08333" stroke-linecap="round" stroke-linejoin="round"/>
</g>
</svg>
