<svg preserveAspectRatio="none" width="100%" height="100%" overflow="visible" style="display: block;" viewBox="0 0 18 18" fill="none" xmlns="http://www.w3.org/2000/svg">
<g id="Icon">
<path id="Vector" d="M7.5 15C7.49994 15.1394 7.53871 15.276 7.61197 15.3946C7.68523 15.5131 7.79008 15.609 7.91475 15.6713L9.41475 16.4213C9.52912 16.4784 9.65621 16.5054 9.78393 16.4996C9.91166 16.4938 10.0358 16.4555 10.1445 16.3882C10.2533 16.3209 10.343 16.227 10.4052 16.1153C10.4674 16.0036 10.5001 15.8779 10.5 15.75V10.5C10.5002 10.1283 10.6383 9.76988 10.8878 9.49425L16.305 3.5025C16.4021 3.39492 16.4659 3.26151 16.4888 3.11841C16.5117 2.97531 16.4926 2.82865 16.4339 2.69616C16.3752 2.56366 16.2794 2.45102 16.158 2.37184C16.0366 2.29266 15.8949 2.25034 15.75 2.25H2.25C2.10496 2.25005 1.96304 2.29216 1.84144 2.37123C1.71984 2.45029 1.62377 2.56292 1.56488 2.69547C1.50598 2.82802 1.48679 2.97481 1.50962 3.11804C1.53245 3.26128 1.59632 3.39482 1.6935 3.5025L7.11225 9.49425C7.36165 9.76988 7.49983 10.1283 7.5 10.5V15Z" stroke="var(--stroke-0, #0F766E)" stroke-width="1.5" stroke-linecap="round" stroke-linejoin="round"/>
</g>
</svg>
