<svg preserveAspectRatio="none" width="100%" height="100%" overflow="visible" style="display: block;" viewBox="0 0 13 13" fill="none" xmlns="http://www.w3.org/2000/svg">
<g id="Icon" clip-path="url(#clip0_109_9)">
<path id="Vector" d="M5.95833 3.25C6.55664 3.25 7.04167 2.76498 7.04167 2.16667C7.04167 1.56836 6.55664 1.08333 5.95833 1.08333C5.36002 1.08333 4.875 1.56836 4.875 2.16667C4.875 2.76498 5.36002 3.25 5.95833 3.25Z" stroke="var(--stroke-0, #0F766E)" stroke-width="1.08333" stroke-linecap="round" stroke-linejoin="round"/>
<path id="Vector_2" d="M9.75 5.41667C10.3483 5.41667 10.8333 4.93164 10.8333 4.33333C10.8333 3.73502 10.3483 3.25 9.75 3.25C9.15169 3.25 8.66667 3.73502 8.66667 4.33333C8.66667 4.93164 9.15169 5.41667 9.75 5.41667Z" stroke="var(--stroke-0, #0F766E)" stroke-width="1.08333" stroke-linecap="round" stroke-linejoin="round"/>
<path id="Vector_3" d="M10.8333 9.75C11.4316 9.75 11.9167 9.26498 11.9167 8.66667C11.9167 8.06836 11.4316 7.58333 10.8333 7.58333C10.235 7.58333 9.75 8.06836 9.75 8.66667C9.75 9.26498 10.235 9.75 10.8333 9.75Z" stroke="var(--stroke-0, #0F766E)" stroke-width="1.08333" stroke-linecap="round" stroke-linejoin="round"/>
<path id="Vector_4" d="M4.875 5.41667C5.23066 5.41667 5.58284 5.48672 5.91143 5.62283C6.24002 5.75893 6.53859 5.95843 6.79008 6.20992C7.04157 6.46141 7.24107 6.75998 7.37717 7.08857C7.51328 7.41716 7.58333 7.76934 7.58333 8.125V10.0208C7.58319 10.4739 7.42078 10.912 7.12553 11.2556C6.83028 11.5993 6.42171 11.8259 5.97382 11.8943C5.52593 11.9627 5.06835 11.8685 4.68395 11.6287C4.29955 11.3888 4.01376 11.0192 3.87833 10.5869C3.64722 9.84118 3.15972 9.35278 2.41583 9.12167C1.98368 8.98631 1.61426 8.70074 1.3744 8.31662C1.13455 7.93251 1.04012 7.47522 1.10819 7.02752C1.17626 6.57981 1.40234 6.17126 1.74552 5.87579C2.08871 5.58032 2.52632 5.41746 2.97917 5.41667H4.875Z" stroke="var(--stroke-0, #0F766E)" stroke-width="1.08333" stroke-linecap="round" stroke-linejoin="round"/>
</g>
<defs>
<clipPath id="clip0_109_9">
<rect width="13" height="13" fill="white"/>
</clipPath>
</defs>
</svg>
